<svg version="1.2" xmlns="http://www.w3.org/2000/svg" viewBox="0 0 44 44" width="44" height="44">
	<title>setting_icon-svg</title>
	<style>
		.s0 { fill: #ffffff } 
	</style>
	<path id="Layer" fill-rule="evenodd" class="s0" d="m42.3 18c1 0.2 1.7 1 1.7 2v4c0 1-0.7 1.8-1.7 2l-3.4 0.6q-0.6 2.2-1.7 4.1l2 2.9c0.6 0.8 0.5 1.9-0.2 2.5l-2.9 2.9c-0.7 0.7-1.7 0.8-2.5 0.2l-2.9-2q-1.9 1.1-4.1 1.7l-0.6 3.4c-0.2 1-1 1.7-2 1.7h-4c-1 0-1.8-0.7-2-1.7l-0.6-3.4q-2.2-0.6-4.1-1.7l-2.9 2c-0.8 0.6-1.8 0.5-2.5-0.2l-2.9-2.9c-0.7-0.7-0.8-1.7-0.2-2.5l2-2.9q-1.1-1.9-1.7-4.1l-3.4-0.6c-1-0.2-1.7-1-1.7-2v-4c0-1 0.7-1.8 1.7-2l3.4-0.6q0.6-2.2 1.7-4.1l-2-2.9c-0.6-0.8-0.5-1.8 0.2-2.5l2.9-2.9c0.7-0.7 1.7-0.8 2.5-0.2l2.9 2q1.9-1.1 4.1-1.7l0.6-3.4c0.2-1 1-1.7 2-1.7h4c1 0 1.8 0.7 2 1.7l0.6 3.4q2.2 0.6 4.1 1.7l2.9-2c0.8-0.6 1.9-0.5 2.5 0.2l2.9 2.9c0.7 0.7 0.8 1.7 0.2 2.5l-2 2.9q1.1 1.9 1.7 4.1zm-20.4 12c4.5 0 8-3.6 8-8 0-4.4-3.5-8-8-8-4.4 0-8 3.6-8 8 0 4.4 3.6 8 8 8z"/>
</svg>